<svg width="40" height="40" viewBox="0 0 40 40" fill="none" xmlns="http://www.w3.org/2000/svg">
<g clip-path="url(#clip0_4_1670)">
<path d="M33.3333 18.3332C32.9257 15.4002 31.5651 12.6826 29.4611 10.599C27.357 8.51539 24.6263 7.18137 21.6895 6.80242C18.7526 6.42348 15.7727 7.02064 13.2087 8.50191C10.6446 9.98319 8.63875 12.2664 7.50001 14.9998M6.66667 8.33317V14.9998H13.3333" stroke="black" stroke-width="2" stroke-linecap="round" stroke-linejoin="round"/>
<path d="M6.66667 21.6665C7.07427 24.5995 8.43489 27.3171 10.5389 29.4007C12.643 31.4843 15.3737 32.8183 18.3106 33.1973C21.2474 33.5762 24.2273 32.979 26.7913 31.4978C29.3554 30.0165 31.3613 27.7333 32.5 24.9998M33.3333 31.6665V24.9998H26.6667" stroke="black" stroke-width="2" stroke-linecap="round" stroke-linejoin="round"/>
</g>
<defs>
<clipPath id="clip0_4_1670">
<rect width="40" height="40" fill="white"/>
</clipPath>
</defs>
</svg>
